<svg width="40" height="40" viewBox="0 0 40 40" fill="none" xmlns="http://www.w3.org/2000/svg">
<rect width="40" height="40" rx="5" fill="url(#paint0_linear_828:1258)"/>
<g clip-path="url(#clip0_828:1258)">
<path d="M31.5561 21.3866C31.5378 21.6901 31.3399 21.9529 31.0537 22.0552L13.5329 28.2906C13.2391 28.3952 12.9114 28.3093 12.7067 28.0741C12.5018 27.8389 12.4618 27.5026 12.6059 27.2259L16.143 20.4276L13.4392 13.2882C13.3286 12.9963 13.4084 12.6661 13.6401 12.4569C13.6695 12.4303 13.7009 12.4062 13.7334 12.3849C13.9566 12.2389 14.2437 12.2196 14.4872 12.3416L31.1384 20.662C31.41 20.798 31.5746 21.0833 31.5561 21.3866ZM15.5447 14.5654L17.5079 19.7493L20.6973 19.9412C21.1154 19.9662 21.4339 20.3255 21.4087 20.7438C21.3836 21.1622 21.0241 21.4799 20.6062 21.4551L17.4182 21.2635L14.8419 26.2144L28.8674 21.223L15.5447 14.5654Z" fill="white"/>
</g>
<defs>
<linearGradient id="paint0_linear_828:1258" x1="2.51429" y1="-2.61414e-05" x2="41.2026" y2="1.4154" gradientUnits="userSpaceOnUse">
<stop stop-color="#EA7125"/>
<stop offset="1" stop-color="#D6083B"/>
</linearGradient>
<clipPath id="clip0_828:1258">
<rect width="19.5923" height="19.5923" fill="white" transform="matrix(0.836842 -0.547445 -0.547445 -0.836842 16 33.1213)"/>
</clipPath>
</defs>
</svg>
