<svg width="32" height="32" viewBox="0 0 32 32" fill="none" xmlns="http://www.w3.org/2000/svg">
<circle cx="16" cy="16" r="16" fill="url(#paint0_linear_761:166)"/>
<path d="M11.7518 8.61051L9.93376 8.81252C9.00406 8.91582 8.28865 9.65635 8.42635 10.5816C8.69689 12.3994 9.67768 15.5612 13.0576 18.9411C16.4374 22.3209 19.5996 23.3022 21.4177 23.573C22.3431 23.7109 23.0839 22.9954 23.1872 22.0655L23.3892 20.2479C23.4772 19.4552 23.086 18.686 22.3935 18.2904L21.19 17.6029C20.4087 17.1566 19.4254 17.2883 18.7892 17.9246C18.3174 18.3963 17.6355 18.5954 17.0466 18.282C16.5374 18.011 15.8728 17.566 15.1532 16.8465C14.4337 16.1269 13.9887 15.4622 13.7177 14.9531C13.4042 14.3641 13.6034 13.6823 14.0751 13.2105C14.7114 12.5743 14.8431 11.591 14.3968 10.8097L13.7093 9.60621C13.3137 8.91371 12.5445 8.52244 11.7518 8.61051Z" stroke="white" stroke-width="1.5" stroke-linecap="round" stroke-linejoin="round"/>
<defs>
<linearGradient id="paint0_linear_761:166" x1="2.01143" y1="-2.09131e-05" x2="32.9621" y2="1.13232" gradientUnits="userSpaceOnUse">
<stop stop-color="#008E9A"/>
<stop offset="1" stop-color="#0072CF"/>
</linearGradient>
</defs>
</svg>
